<?xml version="1.0"?>
<svg xmlns="http://www.w3.org/2000/svg" width="40" height="40" viewBox="0 0 40 40" fill="none">
<path fill-rule="evenodd" clip-rule="evenodd" d="M20 0C8.95431 0 0 8.95431 0 20C0 31.0457 8.95431 40 20 40C31.0457 40 40 31.0457 40 20C40 8.95431 31.0457 0 20 0ZM9.60135 16.5649H14.1338V30.183H9.60135V16.5649ZM14.4323 12.3522C14.4029 11.017 13.448 10 11.8975 10C10.347 10 9.33333 11.017 9.33333 12.3522C9.33333 13.6598 10.317 14.7061 11.8387 14.7061H11.8677C13.448 14.7061 14.4323 13.6598 14.4323 12.3522ZM25.2609 16.2451C28.2435 16.2451 30.4795 18.1919 30.4795 22.3748L30.4793 30.183H25.947V22.8973C25.947 21.0673 25.2912 19.8185 23.6504 19.8185C22.3982 19.8185 21.6524 20.6604 21.3248 21.4735C21.205 21.7649 21.1756 22.1709 21.1756 22.5779V30.1833H16.6426C16.6426 30.1833 16.7023 17.8431 16.6426 16.5652H21.1756V18.4941C21.7771 17.5669 22.8545 16.2451 25.2609 16.2451Z" fill="#6F6F6F"/>
</svg>
